<?xml version="1.0" encoding="utf-8"?>
<!-- Generator: Adobe Illustrator 24.3.0, SVG Export Plug-In . SVG Version: 6.00 Build 0)  -->
<svg version="1.1"
	 id="Capa_1" xmlns:cc="http://creativecommons.org/ns#" xmlns:dc="http://purl.org/dc/elements/1.1/" xmlns:inkscape="http://www.inkscape.org/namespaces/inkscape" xmlns:rdf="http://www.w3.org/1999/02/22-rdf-syntax-ns#" xmlns:sodipodi="http://sodipodi.sourceforge.net/DTD/sodipodi-0.dtd" xmlns:svg="http://www.w3.org/2000/svg"
	 xmlns="http://www.w3.org/2000/svg" xmlns:xlink="http://www.w3.org/1999/xlink" x="0px" y="0px" viewBox="0 0 189.5 189.5"
	 style="enable-background:new 0 0 189.5 189.5;" xml:space="preserve">
<style type="text/css">
	.st0{fill:url(#path3606_1_);}
</style>
<sodipodi:namedview  bordercolor="#666666" borderopacity="1" gridtolerance="10" guidetolerance="10" id="namedview3641" inkscape:current-layer="Capa_1" inkscape:cx="94.736504" inkscape:cy="94.736504" inkscape:pageopacity="0" inkscape:pageshadow="2" inkscape:window-height="705" inkscape:window-maximized="1" inkscape:window-width="1366" inkscape:window-x="-8" inkscape:window-y="173" inkscape:zoom="2.7224161" objecttolerance="10" pagecolor="#ffffff" showgrid="false">
	</sodipodi:namedview>
<g id="g3608">
	<linearGradient id="path3606_1_" gradientUnits="userSpaceOnUse" x1="-1.745073e-04" y1="94.7367" x2="189.4723" y2="94.7367">
		<stop  offset="1" style="stop-color:#FFFFFF"/>
		<stop  offset="1" style="stop-color:#000000"/>
	</linearGradient>
	<path id="path3606" class="st0" d="M152.5,179.5c-1.5,0-2.9-0.4-4.2-1.3l-47.6-32.3l-25.6,18.4c-2,1.4-4.6,1.8-6.9,1
		c-2.3-0.8-4.1-2.8-4.7-5.1l-12.8-48.6L4.8,93.9C1.9,92.8,0,90.1,0,87c0-3.1,1.9-5.9,4.7-7L179,10.6c0.8-0.3,1.6-0.5,2.5-0.6
		c0.3,0,0.6,0,0.9,0c1.7,0.1,3.5,0.8,4.8,2.1c0.1,0.1,0.3,0.3,0.4,0.4c1.1,1.3,1.7,2.8,1.8,4.4c0,0.4,0,0.8,0,1.2
		c0,0.3-0.1,0.6-0.1,0.9l-29.4,154.4c-0.5,2.5-2.2,4.6-4.5,5.5C154.5,179.3,153.5,179.5,152.5,179.5z M104.9,130.6l42.4,28.8
		l22.9-120.1l-82.7,79.6l17.2,11.6C104.7,130.5,104.8,130.5,104.9,130.6z M69.5,124.2l5.7,21.5l12.2-8.8l-16-10.9
		C70.7,125.5,70,124.9,69.5,124.2z M28.1,86.8l31.5,12c2.3,0.9,4,2.8,4.6,5.1l4,15.1c0.2-1.7,1-3.4,2.3-4.6l78.8-75.8L28.1,86.8z"/>
</g>
<g id="g3610">
</g>
<g id="g3612">
</g>
<g id="g3614">
</g>
<g id="g3616">
</g>
<g id="g3618">
</g>
<g id="g3620">
</g>
<g id="g3622">
</g>
<g id="g3624">
</g>
<g id="g3626">
</g>
<g id="g3628">
</g>
<g id="g3630">
</g>
<g id="g3632">
</g>
<g id="g3634">
</g>
<g id="g3636">
</g>
<g id="g3638">
</g>
</svg>
