<?xml version="1.0" standalone="no"?>
<!DOCTYPE svg PUBLIC "-//W3C//DTD SVG 20010904//EN"
 "http://www.w3.org/TR/2001/REC-SVG-20010904/DTD/svg10.dtd">
<svg version="1.0" xmlns="http://www.w3.org/2000/svg"
 width="40.000000pt" height="40.000000pt" viewBox="0 0 40.000000 40.000000"
 preserveAspectRatio="xMidYMid meet">

<g transform="translate(0.000000,40.000000) scale(0.100000,-0.100000)"
fill="#000000" stroke="none">
<path d="M20 270 l0 -110 70 0 70 0 0 -35 0 -35 -70 0 -70 0 0 -35 0 -35 110
0 110 0 0 70 0 70 35 0 35 0 0 -70 0 -70 35 0 35 0 0 110 0 110 -70 0 -70 0 0
35 0 35 70 0 70 0 0 35 0 35 -110 0 -110 0 0 -70 0 -70 -35 0 -35 0 0 70 0 70
-35 0 -35 0 0 -110z"/>
</g>
</svg>
