<?xml version="1.0" encoding="utf-8"?>
<!-- Generator: Adobe Illustrator 24.3.0, SVG Export Plug-In . SVG Version: 6.00 Build 0)  -->
<svg version="1.1" id="Layer_1" xmlns="http://www.w3.org/2000/svg" xmlns:xlink="http://www.w3.org/1999/xlink" x="0px" y="0px"
	 viewBox="0 0 512 512" style="enable-background:new 0 0 512 512;" xml:space="preserve">
<style type="text/css">
	.st0{fill:url(#SVGID_1_);}
	.st1{fill:url(#SVGID_2_);}
</style>
<g>
	<g>
		<linearGradient id="SVGID_1_" gradientUnits="userSpaceOnUse" x1="0" y1="255.9995" x2="512" y2="255.9995">
			<stop  offset="1" style="stop-color:#FFFFFF"/>
			<stop  offset="1" style="stop-color:#000000"/>
		</linearGradient>
		<path class="st0" d="M469.3,175.5h-52.1V102c0-23.6-19.2-42.7-42.7-42.7H42.7C19.2,59.2,0,78.4,0,102v191.8
			c0,23.6,19.2,42.7,42.7,42.7h52.1V410c0,23.6,19.2,42.7,42.7,42.7h331.7c23.6,0,42.7-19.2,42.7-42.7V218.2
			C512,194.7,492.8,175.5,469.3,175.5z M24.4,102c0-10.1,8.2-18.3,18.3-18.3h331.7c10.1,0,18.3,8.2,18.3,18.3V119H24.4V102z
			 M94.8,218.2v93.8H42.7c-10.1,0-18.3-8.2-18.3-18.3V200h74.5C96.3,205.5,94.8,211.7,94.8,218.2z M24.4,175.6v-32.1h368.3v32.1
			H137.6c-0.8,0-1.6,0-2.5,0.1H24.4z M469.3,428.4H137.6c-10.1,0-18.3-8.2-18.3-18.3V218.2c0-9.6,7.4-17.5,16.8-18.2h268.8
			c0.5,0,0.9,0,1.3-0.1h63c10.1,0,18.3,8.2,18.3,18.3V410h0C487.6,420.1,479.4,428.4,469.3,428.4z"/>
	</g>
</g>
<g>
	<g>
		<linearGradient id="SVGID_2_" gradientUnits="userSpaceOnUse" x1="207.76" y1="314.142" x2="399.082" y2="314.142">
			<stop  offset="1" style="stop-color:#FFFFFF"/>
			<stop  offset="1" style="stop-color:#000000"/>
		</linearGradient>
		<path class="st1" d="M340.2,255.3c-13.9,0-26.7,4.8-36.7,12.9c-10.3-8.3-23.2-12.9-36.8-12.9c-32.5,0-58.9,26.4-58.9,58.9
			s26.4,58.9,58.9,58.9c13.6,0,26.5-4.6,36.8-12.9c10.1,8.1,22.9,12.9,36.7,12.9c32.5,0,58.9-26.4,58.9-58.9
			S372.7,255.3,340.2,255.3z M288,341.2c-6,4.8-13.5,7.4-21.3,7.4c-19,0-34.5-15.5-34.5-34.5c0-19,15.5-34.5,34.5-34.5
			c7.9,0,15.3,2.6,21.3,7.4c-4.2,8.1-6.6,17.3-6.6,27.1C281.3,323.9,283.7,333.1,288,341.2z M340.2,348.6c-19,0-34.4-15.5-34.4-34.4
			c0-19,15.5-34.4,34.4-34.4c19,0,34.4,15.5,34.4,34.4C374.7,333.1,359.2,348.6,340.2,348.6z"/>
	</g>
</g>
</svg>
