<?xml version="1.0" encoding="utf-8"?>
<!-- Generator: Adobe Illustrator 24.3.0, SVG Export Plug-In . SVG Version: 6.00 Build 0)  -->
<svg version="1.1"
	 id="Capa_1" xmlns:cc="http://creativecommons.org/ns#" xmlns:dc="http://purl.org/dc/elements/1.1/" xmlns:inkscape="http://www.inkscape.org/namespaces/inkscape" xmlns:rdf="http://www.w3.org/1999/02/22-rdf-syntax-ns#" xmlns:sodipodi="http://sodipodi.sourceforge.net/DTD/sodipodi-0.dtd" xmlns:svg="http://www.w3.org/2000/svg"
	 xmlns="http://www.w3.org/2000/svg" xmlns:xlink="http://www.w3.org/1999/xlink" x="0px" y="0px" viewBox="0 0 184.3 184.3"
	 style="enable-background:new 0 0 184.3 184.3;" xml:space="preserve">
<style type="text/css">
	.st0{fill:url(#path5535_1_);}
</style>
<sodipodi:namedview  bordercolor="#666666" borderopacity="1" gridtolerance="10" guidetolerance="10" id="namedview5568" inkscape:current-layer="Capa_1" inkscape:cx="92.156502" inkscape:cy="92.156502" inkscape:pageopacity="0" inkscape:pageshadow="2" inkscape:window-height="705" inkscape:window-maximized="1" inkscape:window-width="1366" inkscape:window-x="-8" inkscape:window-y="173" inkscape:zoom="2.7986326" objecttolerance="10" pagecolor="#ffffff" showgrid="false">
	</sodipodi:namedview>
<linearGradient id="path5535_1_" gradientUnits="userSpaceOnUse" x1="-4.654879e-04" y1="92.1561" x2="184.3127" y2="92.1561">
	<stop  offset="1" style="stop-color:#FFFFFF"/>
	<stop  offset="1" style="stop-color:#000000"/>
</linearGradient>
<path id="path5535" class="st0" d="M180.3,147.8l-53-45.4l55.3-66.8c2.6-3.2,2.2-7.9-1-10.6c-3.2-2.6-7.9-2.2-10.6,1l-60,72.5
	c-0.3,0.4-0.6,0.8-0.8,1.2V30.8c0-4.1-3.4-7.5-7.5-7.5h-9.5c-4.1,0-7.5,3.4-7.5,7.5s3.4,7.5,7.5,7.5h2v93.3L13.4,26.2
	c-2.5-3.3-7.3-3.9-10.5-1.3c-3.3,2.5-3.9,7.3-1.3,10.5l95.2,122.6c1.4,1.9,3.7,2.9,5.9,2.9c0.8,0,1.6-0.1,2.4-0.4
	c3-1,5.1-3.9,5.1-7.1v-46.6c0.4,0.8,1,1.5,1.7,2.1l58.7,50.2c1.4,1.2,3.1,1.8,4.9,1.8c2.1,0,4.2-0.9,5.7-2.6
	C183.8,155.2,183.5,150.5,180.3,147.8z"/>
<g id="g5537">
</g>
<g id="g5539">
</g>
<g id="g5541">
</g>
<g id="g5543">
</g>
<g id="g5545">
</g>
<g id="g5547">
</g>
<g id="g5549">
</g>
<g id="g5551">
</g>
<g id="g5553">
</g>
<g id="g5555">
</g>
<g id="g5557">
</g>
<g id="g5559">
</g>
<g id="g5561">
</g>
<g id="g5563">
</g>
<g id="g5565">
</g>
</svg>
